# xmcd CD database file
#
# Track frame offsets:
#	150
#	18257
#	30222
#	53162
#	69052
#	81632
#	98145
#	117054
#	128960
#	155367
#	168130
#	185612
#	201390
#	221327
#	235912
#
# Disc length: 3386 seconds
#
# Revision: 0
# Processed by: cddbd v1.5.2PL0 Copyright (c) Steve Scherf et al.
# Submitted via: CDex 1.70beta2
#
DISCID=bd0d380f
DTITLE=Varios - Clásicos De Oro
DYEAR=1900
DGENRE=Salsa
TTITLE0=Cantar Fañoso
TTITLE1=Jonah's Pachanga
TTITLE2=Charanguiri
TTITLE3=Papa Hupa
TTITLE4=Listen Dos Trompetas
TTITLE5=Tihuanaco
TTITLE6=El Cerquillo
TTITLE7=Un Regalo Para Ti
TTITLE8=Tal Vez Vuelvas A Llamarme
TTITLE9=Yo Estoy Confundido
TTITLE10=Pienso En Ayer
TTITLE11=La Bamba
TTITLE12=Que Humanidad
TTITLE13=Almendra
TTITLE14=La Solución De La Salsa
EXTD=
EXTT0=
EXTT1=
EXTT2=
EXTT3=
EXTT4=
EXTT5=
EXTT6=
EXTT7=
EXTT8=
EXTT9=
EXTT10=
EXTT11=
EXTT12=
EXTT13=
EXTT14=
PLAYORDER=
